<?xml version="1.0" encoding="UTF-8" standalone="no"?>
<!-- Created with Inkscape (http://www.inkscape.org/) -->

<svg
   xmlns:dc="http://purl.org/dc/elements/1.1/"
   xmlns:cc="http://creativecommons.org/ns#"
   xmlns:rdf="http://www.w3.org/1999/02/22-rdf-syntax-ns#"
   xmlns:svg="http://www.w3.org/2000/svg"
   xmlns="http://www.w3.org/2000/svg"
   xmlns:sodipodi="http://sodipodi.sourceforge.net/DTD/sodipodi-0.dtd"
   xmlns:inkscape="http://www.inkscape.org/namespaces/inkscape"
   width="30"
   height="20"
   viewBox="0 0 7.9374997 5.291667"
   version="1.1"
   id="svg8"
   sodipodi:docname="CarCrashed.svg"
   inkscape:version="0.92.2 (5c3e80d, 2017-08-06)"
   inkscape:export-filename="C:\Users\Yzumi\Desktop\projects\ia\mlp-ga-driving-java\images\CarCrashed.svg.png"
   inkscape:export-xdpi="96"
   inkscape:export-ydpi="96">
  <defs
     id="defs2" />
  <sodipodi:namedview
     id="base"
     pagecolor="#ffffff"
     bordercolor="#666666"
     borderopacity="1.0"
     inkscape:pageopacity="0.0"
     inkscape:pageshadow="2"
     inkscape:zoom="22.627417"
     inkscape:cx="18.379418"
     inkscape:cy="10.875869"
     inkscape:document-units="mm"
     inkscape:current-layer="layer1"
     showgrid="false"
     units="px"
     inkscape:window-width="1366"
     inkscape:window-height="706"
     inkscape:window-x="-8"
     inkscape:window-y="-8"
     inkscape:window-maximized="1" />
  <metadata
     id="metadata5">
    <rdf:RDF>
      <cc:Work
         rdf:about="">
        <dc:format>image/svg+xml</dc:format>
        <dc:type
           rdf:resource="http://purl.org/dc/dcmitype/StillImage" />
        <dc:title />
      </cc:Work>
    </rdf:RDF>
  </metadata>
  <g
     inkscape:label="Capa 1"
     inkscape:groupmode="layer"
     id="layer1"
     transform="translate(0,-291.70832)">
    <path
       style="fill:#c8c8c8;fill-opacity:1;stroke:#000000;stroke-width:0.01012331;stroke-miterlimit:4;stroke-dasharray:none;stroke-opacity:1"
       d="M 7.8062572,293.08713 7.684636,292.6611 7.4888543,292.30814 7.192731,292.0054 l -0.4764186,-0.19287 -0.4795869,-0.0111 -1.0826815,0.20101 -1.3390257,0.007 -1.4783655,-0.28392 -0.6498389,2.3e-4 -0.96202495,0.3153 -0.5546444,-0.002 -0.1551463,0.12886 0.089166,1.10408 8.03e-4,2.18036 -0.088895,1.12234 0.1784033,0.13338 0.5418196,-0.007 0.97463615,0.28743 0.6120846,0.002 1.7326822,-0.31627 1.1618735,0.007 1.0058061,0.20853 0.4808083,0.002 0.3945448,-0.11212 0.3201386,-0.232 0.2397163,-0.36973 0.1507213,-0.59119 0.1258987,-0.70415 -0.00524,-1.03523 z"
       id="rect837"
       inkscape:connector-curvature="0"
       sodipodi:nodetypes="ccccccccccccccccccccccccccccccc" />
    <path
       style="fill:#c8c8c8;fill-opacity:1;stroke:#000000;stroke-width:0.007867;stroke-miterlimit:4;stroke-dasharray:none;stroke-opacity:1"
       d="m 7.6649358,293.30339 -0.4715085,-0.86954 -0.5221889,-0.0813 -0.7429352,-0.007 -0.6789064,0.11232 0.2426013,1.53919 0.011942,0.67079 -0.2377884,1.49733 0.612472,0.1088 0.7359504,0.005 0.5720381,-0.1021 0.4950829,-1.01466 z"
       id="rect840"
       inkscape:connector-curvature="0"
       sodipodi:nodetypes="ccccccccccccc" />
    <path
       style="fill:none;fill-opacity:1;stroke:#000000;stroke-width:0.01512354;stroke-miterlimit:4;stroke-dasharray:none;stroke-opacity:1"
       d="m 4.8300625,292.4193 -0.6511891,10e-4 -0.9212669,0.0935 -0.9822426,0.21065 -0.7501824,0.32997 -0.2481808,0.33935 -0.096135,0.34161 0.00119,0.98254 0.094782,0.55777 0.2255955,0.25183 0.7311885,0.32258 1.006011,0.23178 0.8770191,0.11648 0.7120535,-0.003 0.1949314,-0.18463 0.1276118,-0.32708 0.1464306,-0.52684 0.062169,-0.48513 -0.013781,-0.76832 -0.030694,-0.40007 -0.098018,-0.41814 -0.1584873,-0.42641 z"
       id="rect840-0"
       inkscape:connector-curvature="0"
       sodipodi:nodetypes="ccccccccccccccccccccccc" />
    <path
       style="fill:#c8c8c8;fill-opacity:1;stroke:#000000;stroke-width:0.0040234;stroke-miterlimit:4;stroke-dasharray:none;stroke-opacity:1"
       d="m 5.2173517,293.08517 -0.1584873,-0.42641 -0.2288019,-0.23946 -0.2339955,0.10602 -0.1539596,0.15041 0.038026,1.27968 0.017417,0.61016 -0.079619,1.26256 0.1474242,0.22509 0.2633441,0.14216 0.1949315,-0.18463 0.1276118,-0.32708 0.1464306,-0.52684 0.062169,-0.48513 -0.017694,-0.76379 -0.02678,-0.4046 z"
       id="rect840-03"
       inkscape:connector-curvature="0"
       sodipodi:nodetypes="ccccccccccccccccc" />
    <path
       style="fill:#c8c8c8;fill-opacity:1;stroke:#000000;stroke-width:0.00336754;stroke-miterlimit:4;stroke-dasharray:none;stroke-opacity:1"
       d="m 2.6969326,293.43693 -0.1266785,-0.151 -0.2023787,0.005 -0.7750076,0.11561 -0.160436,0.13808 -0.074281,0.1988 1.3345929,-0.10869 z"
       id="rect840-5"
       inkscape:connector-curvature="0"
       sodipodi:nodetypes="cccccccc" />
    <path
       style="fill:#c8c8c8;fill-opacity:1;stroke:#000000;stroke-width:0.00263501;stroke-miterlimit:4;stroke-dasharray:none;stroke-opacity:1"
       d="m 2.6995515,293.7926 -1.3817283,0.11287 0.00418,0.24994 h 1.381738 z"
       id="rect840-3"
       inkscape:connector-curvature="0"
       sodipodi:nodetypes="ccccc" />
    <path
       style="fill:#c8c8c8;fill-opacity:1;stroke:#000000;stroke-width:0.00263501;stroke-miterlimit:4;stroke-dasharray:none;stroke-opacity:1"
       d="m 2.698673,294.67368 -1.3817283,-0.11287 0.00418,-0.24994 h 1.381738 z"
       id="rect840-3-7"
       inkscape:connector-curvature="0"
       sodipodi:nodetypes="ccccc" />
    <path
       style="fill:#c8c8c8;fill-opacity:1;stroke:#000000;stroke-width:0.00336754;stroke-miterlimit:4;stroke-dasharray:none;stroke-opacity:1"
       d="m 2.6994304,295.02389 -0.1266785,0.15099 -0.2023788,-0.005 -0.7750076,-0.11562 -0.160436,-0.13808 -0.074282,-0.1988 1.3345931,0.10869 z"
       id="rect840-5-7"
       inkscape:connector-curvature="0"
       sodipodi:nodetypes="cccccccc" />
  </g>
</svg>
